<svg xmlns="http://www.w3.org/2000/svg" width="77" height="29" fill="none"><path fill="#191919" d="M2 2h73v25H2V2Z"/><path fill="#191919" d="m7.063 2.299-.06 1.498.06-1.498Zm6.75-.01-.067 1.499.066-1.499Zm1.124.05.067-1.498-.066 1.499Zm2.25-.36L16.855.518l.334 1.463Zm7.875.072L24.771.579l.291 1.472Zm1.125-.224L26.48 3.3l-.291-1.472Zm3.375-.168-.046-1.5.047 1.5Zm4.5.115-.345 1.46.346-1.46Zm1.126.267-.346 1.46.346-1.46Zm2.25.025L37.342.569l.096 1.497Zm1.124.067-.27 1.476.27-1.476Zm1.126.206.27-1.475-.27 1.475Zm1.124-.048.39 1.449-.39-1.449Zm.563-.15-.39-1.45.39 1.45Zm.563-.152L41.547.54l.39 1.449Zm1.124-.003-.383 1.45.383-1.45Zm1.126.298.383-1.45-.383 1.45Zm4.5-.052L48.523.74l.163 1.49Zm2.25-.138L50.87.596l.068 1.498Zm2.25-.176L53.053.424l.133 1.494Zm2.25.068-.105 1.496.105-1.496Zm2.25.127-.079 1.498.078-1.498Zm2.25-.09L59.83.527l.106 1.496Zm2.25.09-.116 1.496.115-1.496Zm2.25-.062L64.344.554l.094 1.497Zm1.124-.129.248 1.48-.248-1.48Zm.563-.094-.248-1.48.248 1.48Zm.563-.094.247 1.479-.248-1.48Zm1.124-.049L67.69 3.18l.123-1.495Zm1.126.093L69.06.283l-.123 1.495Zm1.124-.014L69.906.272l.157 1.492Zm1.126-.119.157 1.492-.157-1.492Zm1.124.041-.263 1.477.263-1.477Zm1.126.2L73.7.41l-.263 1.477Zm.775.417-1.244.838 1.244-.838Zm.425.631 1.244-.838-1.244.838Zm.305.878-1.48.242 1.48-.242Zm.183 1.126 1.48-.242-1.48.242Zm.098 1.125-1.5.014 1.5-.014Zm.01 1.125 1.5-.015-1.5.014Zm-.015 1.125 1.499.057-1.5-.057Zm-.044 1.124-1.498-.057 1.498.057Zm-.099 1.126-1.486-.205 1.486.204Zm-.154 1.124 1.486.205-1.486-.204Zm-.036 1.126 1.496-.11-1.496.11Zm.083 1.124 1.496-.11-1.496.11Zm.126 1.126-1.483.224 1.483-.225Zm.17 1.124-1.483.225 1.483-.224Zm-.074 1.125 1.443.409-1.443-.409Zm-.16.563 1.444.409-1.444-.409Zm-.159.563-1.443-.409 1.443.409Zm-.275 2.25-1.497-.104 1.497.104Zm.166 1.125 1.409-.515-1.41.515Zm.205.562-1.409.514 1.41-.514Zm.205.563 1.41-.515-1.41.515Zm.035 1.687-1.483-.224 1.483.224Zm-.085.563 1.483.224-1.483-.224Zm-.345.95 1.246.834-1.246-.835Zm-.519.773 1.246.835-1.245-.835Zm-.822.396.023 1.5-.022-1.5Zm-1.124.016-.023-1.5.022 1.5Zm-1.126-.025.09-1.497-.09 1.497Zm-1.124-.068-.09 1.497.09-1.497Zm-1.126-.112.208-1.486-.207 1.486Zm-.562-.079.208-1.486-.208 1.486Zm-.563-.079-.207 1.486.207-1.486Zm-1.124-.015.166 1.49-.166-1.49Zm-.563.063-.167-1.491.167 1.49Zm-.563.063-.166-1.49.166 1.49Zm-1.124-.007.184-1.488-.184 1.488Zm-1.126-.14-.184 1.49.184-1.49Zm-1.124.06.335 1.462-.336-1.461Zm-1.126.26-.335-1.463.336 1.462Zm-1.124.052-.203 1.486.203-1.486Zm-1.126-.154.203-1.486-.203 1.486Zm-1.124-.039.1 1.497-.1-1.497Zm-1.126.076-.1-1.497.1 1.497Zm-1.124.026.032-1.5-.032 1.5Zm-1.126-.025-.032 1.5.032-1.5Zm-1.124-.06-.127 1.494.127-1.494Zm-1.126-.095-.126 1.494.127-1.494Zm-1.124-.153.275-1.475-.276 1.475Zm-1.126-.21-.275 1.474.276-1.474Zm-1.124-.04-.172-1.49.172 1.49Zm-.563.064-.172-1.49.172 1.49Zm-.563.065.172 1.49-.172-1.49Zm-1.124.067.004 1.5-.005-1.5Zm-1.126.003.005 1.5-.005-1.5Zm-1.124.08-.208-1.485.208 1.485Zm-1.126.157.208 1.486-.208-1.486Zm-1.124.006.194-1.488-.194 1.488Zm-1.126-.148-.194 1.488.194-1.488Zm-1.124-.12-.126 1.494.126-1.494Zm-1.126-.095.126-1.495-.126 1.495Zm-1.124.018.172 1.49-.172-1.49Zm-1.126.13.173 1.49-.172-1.49Zm-1.124-.024-.238 1.48.237-1.48Zm-1.126-.181-.237 1.481.237-1.481Zm-1.124-.084.017 1.5-.017-1.5Zm-1.126.014-.018-1.5.018 1.5Zm-1.125.048-.11-1.495.11 1.495Zm-1.125.084.111 1.496-.11-1.496Zm-1.125.015-.071 1.498.072-1.498Zm-.562-.027.072-1.499-.072 1.499Zm-.563-.027-.071 1.498.072-1.498Zm-1.125.003.082 1.498-.081-1.498Zm-1.125.061-.08-1.498.08 1.498Zm-1.125.085.144 1.493-.143-1.493Zm-.562.054-.144-1.493.144 1.493Zm-.563.054.144 1.494-.143-1.494Zm-1.125.17.303 1.47-.302-1.47Zm-1.125.233-.303-1.47.303 1.47Zm-1.125.092-.062 1.499.063-1.499Zm-.562-.023.063-1.499-.063 1.499Zm-.563-.024-.062 1.499.063-1.499Zm-1.125-.06.1-1.497-.1 1.496Zm-1.125-.075-.098 1.497.098-1.497Zm-1.125-.072-.094 1.497.095-1.497Zm-2.25-.186-.208 1.486.209-1.486Zm-1.124-.157-.209 1.485.209-1.485Zm-1.126-.042.1 1.497-.1-1.497Zm-1.124.076-.1-1.497.1 1.497Zm-1.126.154.304 1.469-.303-1.47Zm-1.124.232-.304-1.469.303 1.47Zm-1.125-.065-.462 1.427.462-1.427Zm-1.125-.364.461-1.428-.462 1.428Zm-1.125-.098.221 1.483-.221-1.483Zm-1.126.168.222 1.483-.221-1.483Zm-.828-7.195-1.458-.35 1.458.35Zm.341-2.25-1.49.167 1.49-.168Zm-.078-2.25-1.472-.292 1.472.291Zm.208-2.25-1.464.327 1.464-.328Zm-.303-2.25L.414 10.49l1.488.197Zm.148-1.126L.563 9.367l1.487.197Zm.151-1.124L.715 8.233l1.486.204Zm-.538-6.25L.933.877l.73 1.31Zm1.462-.197.012 1.5.563-.005-.013-1.5-.012-1.5-.562.005.012 1.5Zm.563-.005.012 1.5c.305-.002.61.016.918.056l.194-1.487.195-1.487A9.636 9.636 0 0 0 3.675.486l.013 1.5Zm1.124.07-.194 1.486.562.074.195-1.487L5.57.642 5.007.568l-.194 1.487Zm.563.073L5.18 3.616l.563.074.194-1.487.195-1.488L5.57.642l-.195 1.487Zm.563.074L5.742 3.69c.42.055.84.09 1.26.107l.06-1.498.06-1.5c-.33-.012-.66-.04-.99-.084l-.196 1.488Zm1.125.096-.06 1.498.562.023.06-1.499.06-1.499L7.122.8l-.06 1.499Zm.562.022-.06 1.499.563.022.06-1.498.06-1.5-.563-.022-.06 1.5Zm.563.023-.06 1.498c.384.016.768.027 1.152.036l.033-1.5.032-1.5A59.406 59.406 0 0 1 8.247.845l-.06 1.499Zm1.124.034-.032 1.5.563.012.032-1.5.032-1.5-.562-.012-.033 1.5Zm.563.012-.032 1.5.562.012.033-1.5.032-1.5L9.907.89l-.032 1.5Zm.563.012-.033 1.5c.42.009.838 0 1.257-.029l-.1-1.496-.1-1.497c-.33.022-.661.03-.992.022l-.033 1.5Zm1.124-.025.1 1.496.563-.037-.1-1.497-.1-1.496-.562.037.1 1.497Zm.563-.038.1 1.497.562-.037-.1-1.497-.1-1.497-.562.038.1 1.496Zm.563-.037.1 1.497c.319-.022.638-.025.958-.011l.066-1.499.067-1.498c-.43-.02-.86-.014-1.291.014l.1 1.497Zm1.124-.013-.066 1.499.562.025.067-1.499.067-1.498-.563-.025-.066 1.498Zm.563.025-.067 1.499.563.025.066-1.498.067-1.499-.562-.025-.067 1.498Zm.563.026-.067 1.498a5.699 5.699 0 0 0 1.525-.14l-.334-1.462L15.73.774a2.7 2.7 0 0 1-.725.067l-.066 1.499Zm1.124-.104.334 1.463.563-.129-.334-1.462-.334-1.462-.562.128.334 1.462Zm.563-.128.334 1.462.562-.128-.334-1.462-.333-1.463-.563.129.334 1.462Zm.563-.128.333 1.462a2 2 0 0 1 .646-.043l.145-1.493.146-1.493a4.999 4.999 0 0 0-1.604.104l.334 1.463Zm1.125-.074L18.166 3.4l.562.055.146-1.493.146-1.493-.563-.055-.145 1.493Zm.562.055-.146 1.493.563.055.145-1.493.146-1.493-.562-.055-.146 1.493Zm.563.055-.146 1.493c.435.043.872.059 1.308.048l-.038-1.5-.037-1.5a7.694 7.694 0 0 1-.942-.034l-.145 1.493Zm1.125.041.037 1.5.563-.014-.038-1.5-.038-1.5-.562.015.038 1.5Zm.562-.014.038 1.5.562-.015-.038-1.5L21.65.53l-.563.014.038 1.5Zm.563-.014.037 1.5c.33-.009.66-.002.99.02l.098-1.497.098-1.497c-.42-.028-.84-.036-1.261-.026l.038 1.5Zm1.125.023-.098 1.496.562.037.098-1.497.098-1.496-.563-.037-.098 1.497Zm.562.036-.098 1.497.563.037.098-1.497.098-1.496-.563-.037-.098 1.496Zm.563.037-.098 1.497a5.81 5.81 0 0 0 1.514-.1l-.291-1.471L24.77.579a2.81 2.81 0 0 1-.736.05l-.098 1.496Zm1.125-.074.291 1.47.563-.11-.292-1.472-.292-1.471-.562.111.291 1.472Zm.562-.112.292 1.471.562-.111-.291-1.472-.292-1.47-.563.11.292 1.472Zm.563-.112.291 1.472c.29-.058.576-.088.86-.093l-.026-1.5-.027-1.5a7.85 7.85 0 0 0-1.39.15l.291 1.471Zm1.125-.121.026 1.5.562-.01-.026-1.5-.026-1.5-.563.01.026 1.5Zm.562-.01.026 1.5.563-.01-.026-1.5-.027-1.5-.562.01.026 1.5Zm.563-.01.026 1.5c.382-.007.763-.016 1.145-.028l-.047-1.5L29.517.16a82.5 82.5 0 0 1-1.105.026l.026 1.5Zm1.125-.027.046 1.5.562-.018-.046-1.5-.046-1.499-.563.018.047 1.499Zm.562-.017.046 1.499.563-.018-.047-1.499-.046-1.5-.562.018.046 1.5Zm.563-.018.046 1.5c.352-.011.703-.014 1.055-.009l.023-1.5.024-1.5a25.762 25.762 0 0 0-1.195.01l.047 1.5Zm1.125-.009-.024 1.5.563.009.023-1.5.023-1.5-.562-.008-.023 1.5Zm.562.01-.023 1.499.562.009.023-1.5.024-1.5-.563-.009-.023 1.5Zm.563.008-.024 1.5c.264.004.531.037.803.101l.346-1.46.345-1.46a6.726 6.726 0 0 0-1.448-.18l-.023 1.5Zm1.124.141-.345 1.46.563.133.345-1.46.345-1.46-.562-.132-.346 1.46Zm.563.133-.345 1.46.562.133.346-1.46.345-1.46-.563-.132-.345 1.46Zm.563.134-.346 1.46a5.31 5.31 0 0 0 1.566.134l-.096-1.497L36.218.64a2.31 2.31 0 0 1-.684-.06l-.346 1.46Zm1.124.097.096 1.497.562-.036-.095-1.497L36.78.605l-.563.036.096 1.497Zm.563-.036.095 1.497.563-.036-.096-1.497-.095-1.497-.562.036.095 1.497Zm.563-.036.095 1.497c.25-.016.503-.001.76.046l.27-1.476.27-1.475a6.1 6.1 0 0 0-1.49-.089l.094 1.497Zm1.124.067-.27 1.476.563.103.27-1.476.27-1.475-.562-.103-.27 1.475Zm.563.103-.27 1.476.562.103.27-1.476.27-1.475-.562-.103-.27 1.475Zm.563.103-.27 1.476c.598.11 1.198.082 1.784-.075l-.39-1.449-.389-1.448a1.01 1.01 0 0 1-.465.02l-.27 1.476Zm1.124-.048.39 1.449.562-.151-.389-1.449-.39-1.449-.562.152.39 1.448Zm.563-.15.39 1.448.562-.151-.39-1.45L41.548.54l-.562.151.389 1.45Zm.563-.152.389 1.449a.65.65 0 0 1 .352-.001l.383-1.45.384-1.45a3.648 3.648 0 0 0-1.898.003l.39 1.449Zm1.124-.003-.383 1.45.563.15.383-1.45.383-1.451-.562-.149-.383 1.45Zm.563.15-.383 1.45.562.148.383-1.45.384-1.45-.563-.149-.383 1.45Zm.563.148-.384 1.45c.5.132 1.006.198 1.519.195l-.01-1.5-.01-1.5a2.769 2.769 0 0 1-.732-.095l-.383 1.45Zm1.124.145.01 1.5.563-.004-.01-1.5-.01-1.5-.563.004.01 1.5Zm.563-.004.01 1.5.563-.004-.01-1.5-.01-1.5-.563.004.01 1.5Zm.563-.004.01 1.5c.426-.003.853-.028 1.278-.075l-.163-1.49-.164-1.492a9.502 9.502 0 0 1-.972.057l.01 1.5Zm1.124-.066.164 1.491.563-.061-.164-1.492-.164-1.49-.562.061.163 1.491Zm.563-.062.164 1.492.562-.062-.163-1.491L48.523.74l-.563.061.164 1.491Zm.563-.061.163 1.49a16.96 16.96 0 0 1 1.029-.079l-.068-1.498-.067-1.499c-.407.019-.814.05-1.221.095l.163 1.49Zm1.124-.087.068 1.498.562-.025-.067-1.498-.067-1.5-.563.025.068 1.499Zm.563-.025.067 1.498.563-.025-.068-1.499L50.87.596l-.562.025.067 1.499Zm.563-.026.067 1.499c.397-.018.794-.045 1.19-.08l-.133-1.494L51.93.525a23.52 23.52 0 0 1-1.059.07l.068 1.5Zm1.124-.075.134 1.494.562-.05-.133-1.494-.133-1.494-.563.05.133 1.494Zm.563-.05.133 1.494.563-.05-.133-1.495-.134-1.494-.562.05.133 1.495Zm.563-.05.133 1.494c.296-.027.592-.03.887-.01l.105-1.496.104-1.496a8.591 8.591 0 0 0-1.363.013l.133 1.494Zm1.124-.012-.104 1.497.563.039.104-1.496.104-1.497-.562-.039-.105 1.496Zm.563.04-.104 1.496.562.04.105-1.497.104-1.497-.563-.039-.104 1.497Zm.563.039-.105 1.496c.384.027.767.05 1.151.07l.078-1.497.079-1.498c-.366-.02-.733-.042-1.1-.068l-.103 1.497Zm1.124.069-.078 1.497.563.03.078-1.498.078-1.498-.562-.03-.078 1.499Zm.563.029-.078 1.498.562.03.078-1.499.079-1.497-.563-.03-.078 1.498Zm.563.03-.079 1.497c.437.023.873.02 1.31-.012l-.106-1.496-.107-1.496a7.627 7.627 0 0 1-.94.009l-.078 1.497Zm1.124-.01.107 1.495.562-.04-.106-1.496-.106-1.496-.563.04.106 1.496Zm.563-.04.106 1.495.563-.04-.106-1.496L59.83.527l-.562.04.106 1.496Zm.563-.04.106 1.495c.301-.02.602-.02.903.003l.115-1.495.116-1.496A9.113 9.113 0 0 0 59.83.527l.106 1.496Zm1.124.003-.115 1.495.563.044.115-1.496.115-1.496-.562-.043-.115 1.496Zm.563.043-.115 1.496.562.043.115-1.496.116-1.495-.563-.044-.115 1.496Zm.563.043-.116 1.496c.445.034.89.037 1.334.01l-.093-1.498-.094-1.497a6.58 6.58 0 0 1-.916-.006l-.115 1.495Zm1.124.008.094 1.498.562-.036-.093-1.497L63.782.59l-.563.035.093 1.497Zm.563-.035.093 1.497.563-.035-.094-1.497-.093-1.497-.562.035.093 1.497Zm.563-.035.093 1.497c.427-.026.854-.075 1.28-.147l-.249-1.479-.247-1.48a9.427 9.427 0 0 1-.97.112l.093 1.497Zm1.124-.129.248 1.48.563-.095-.248-1.48-.248-1.479-.562.095.248 1.479Zm.563-.094.248 1.48.562-.095-.248-1.48L66.44.255l-.563.094.248 1.48Zm.563-.094.247 1.479a3.04 3.04 0 0 1 .755-.033l.123-1.495.122-1.495c-.5-.04-1-.019-1.495.064l.248 1.48Zm1.124-.049L67.69 3.18l.563.046.122-1.495.122-1.495-.562-.046-.123 1.495Zm.563.046-.122 1.495.562.047.123-1.495.122-1.495-.563-.047-.122 1.495Zm.563.047-.123 1.495a7.58 7.58 0 0 0 1.405-.017l-.157-1.492-.158-1.492a4.42 4.42 0 0 1-.845.01l-.123 1.496Zm1.124-.014.158 1.492.563-.06-.158-1.491-.158-1.492-.562.06.157 1.491Zm.563-.06.158 1.492.562-.059-.157-1.492L71.03.154l-.563.059.158 1.492Zm.563-.059.157 1.492c.233-.025.467-.016.704.026l.263-1.477.264-1.476A5.488 5.488 0 0 0 71.03.154l.157 1.491Zm1.124.041-.263 1.477.563.1.263-1.476.263-1.477-.562-.1-.263 1.476Zm.563.1-.263 1.477.562.1.263-1.476.264-1.477-.563-.1-.263 1.477Zm.563.1-.264 1.478c.076.013.074.023.03-.001a.688.688 0 0 1-.235-.222l1.244-.838 1.244-.838C74.996.78 74.277.513 73.7.41l-.263 1.477Zm.775.417-1.244.838.213.316 1.243-.838 1.244-.839-.212-.315-1.244.838Zm.213.316-1.244.838.212.316 1.244-.839 1.244-.838-.213-.316-1.243.839Zm.212.315-1.244.839c-.015-.023-.008-.02.01.03.017.05.039.13.058.251l1.48-.242 1.481-.241c-.08-.492-.233-1.018-.54-1.475l-1.245.838Zm.305.878-1.48.242.091.563 1.48-.242 1.48-.242-.09-.562-1.481.241Zm.091.563-1.48.242.092.562 1.48-.242 1.48-.241-.091-.563-1.48.242Zm.092.563-1.48.241c.049.301.075.6.078.898l1.5-.014 1.5-.015a8.92 8.92 0 0 0-.117-1.352l-1.48.242Zm.098 1.125-1.5.014.005.563 1.5-.015 1.5-.015-.005-.562-1.5.014Zm.005.562-1.5.015.006.562 1.5-.014 1.5-.015-.006-.563-1.5.015Zm.006.563-1.5.014c.003.351-.002.702-.015 1.053l1.499.057 1.499.058c.015-.399.02-.798.017-1.197l-1.5.014Zm-.016 1.125-1.5-.058-.02.562 1.498.058 1.499.058.022-.563-1.5-.057Zm-.022.562-1.499-.058-.021.563 1.498.057 1.5.058.02-.562-1.498-.058Zm-.022.563-1.498-.058c-.013.325-.042.651-.087.978l1.486.204 1.487.205c.058-.423.095-.847.111-1.272l-1.499-.057Zm-.099 1.124-1.486-.204-.077.563 1.486.204 1.486.204.078-.562-1.487-.204Zm-.077.563-1.486-.204-.077.562 1.486.204 1.486.205.077-.563L75 11.125Zm-.077.563-1.486-.205a6.854 6.854 0 0 0-.046 1.44l1.496-.11 1.496-.11c-.02-.27-.011-.54.026-.811l-1.486-.204Zm-.036 1.124-1.496.11.041.563 1.496-.11 1.496-.11-.041-.563-1.496.11Zm.041.563-1.496.11.042.563 1.496-.11 1.496-.11-.042-.563-1.496.11Zm.042.563-1.496.11c.03.413.076.826.139 1.239l1.483-.225 1.483-.224a13.31 13.31 0 0 1-.113-1.01l-1.496.11Zm.126 1.124-1.483.225.085.562 1.483-.224 1.483-.224-.085-.563-1.483.225Zm.085.563-1.483.224.085.563 1.483-.224 1.483-.225-.085-.562-1.483.224Zm.085.563-1.483.224c.024.157.015.317-.034.492l1.443.409 1.443.408a4.141 4.141 0 0 0 .114-1.758l-1.483.225Zm-.074 1.125-1.444-.409-.159.563 1.444.408 1.443.409.16-.563-1.444-.409Zm-.16.562-1.443-.409-.159.563 1.443.409 1.444.408.159-.563-1.444-.408Zm-.159.563-1.443-.409c-.133.47-.218.948-.251 1.43l1.496.104 1.497.103c.018-.268.066-.54.145-.82l-1.444-.409Zm-.198 1.125-1.496-.104-.04.563 1.497.103 1.497.103.039-.562-1.497-.104Zm-.039.562-1.496-.103-.039.562 1.497.104 1.496.103.039-.563-1.497-.103Zm-.038.563-1.497-.104c-.041.598.05 1.183.254 1.743l1.409-.515 1.409-.514a1.21 1.21 0 0 1-.08-.507l-1.495-.104Zm.166 1.125-1.41.514.206.562 1.41-.514 1.408-.514-.205-.563-1.41.515Zm.205.562-1.409.514.205.563 1.41-.515 1.408-.514-.205-.562-1.409.514Zm.205.563-1.409.514a.755.755 0 0 1 .046.386l1.483.224 1.484.225a3.753 3.753 0 0 0-.195-1.864l-1.409.515Zm.12 1.125-1.483-.225-.085.563 1.483.224 1.483.224.086-.562-1.484-.224Zm-.085.562-1.483-.224-.085.562 1.483.224 1.483.225.085-.563-1.483-.224Zm-.085.563-1.483-.225a.843.843 0 0 1-.107.339l1.245.835 1.246.835c.32-.477.5-1.014.582-1.56l-1.483-.224Zm-.345.95-1.245-.836-.26.387 1.246.835 1.246.835.26-.387-1.247-.835Zm-.259.386-1.246-.835-.26.387 1.246.835 1.246.835.26-.387-1.246-.835Zm-.26.387-1.245-.835a.668.668 0 0 1 .26-.224c.1-.048.16-.046.141-.045l.022 1.5.023 1.5c.75-.012 1.54-.306 2.045-1.06l-1.245-.836Zm-.822.396-.022-1.5-.562.008.022 1.5.022 1.5.563-.009-.022-1.5Zm-.562.008-.022-1.5-.563.008.022 1.5.023 1.5.562-.008-.022-1.5Zm-.563.008-.022-1.5a13.59 13.59 0 0 1-1.013-.023l-.09 1.498-.09 1.497c.413.025.825.034 1.238.028l-.022-1.5Zm-1.124-.025.09-1.497-.563-.034-.09 1.497-.09 1.497.563.034.09-1.497Zm-.563-.034.09-1.497-.563-.034-.09 1.497-.09 1.497.563.034.09-1.497Zm-.563-.034.09-1.497a12.81 12.81 0 0 1-1.007-.1l-.207 1.485-.208 1.485c.413.058.828.1 1.243.124l.09-1.497Zm-1.124-.112.207-1.486-.562-.079-.208 1.486-.208 1.486.563.078.207-1.485Zm-.563-.079.208-1.486-.563-.078-.207 1.485-.208 1.486.562.079.208-1.486Zm-.563-.079.208-1.485c-.498-.07-1-.077-1.5-.021l.168 1.49.166 1.491c.25-.028.5-.024.75.01l.209-1.485Zm-1.124-.015-.168-1.491-.562.063.167 1.49.167 1.491.563-.063-.168-1.49Zm-.563.063-.167-1.491-.563.063.168 1.49.166 1.491.563-.063-.167-1.49Zm-.563.063-.166-1.49a3.29 3.29 0 0 1-.774-.005l-.184 1.488-.185 1.489c.492.06.985.063 1.477.008l-.168-1.49Zm-1.124-.007.184-1.488-.563-.07-.184 1.488-.184 1.49.562.069.184-1.489Zm-.563-.07.184-1.488-.562-.07-.184 1.489-.185 1.488.563.07.184-1.489Zm-.563-.07.185-1.488a4.718 4.718 0 0 0-1.645.087l.336 1.462.335 1.462a1.72 1.72 0 0 1 .605-.034l.184-1.488Zm-1.124.06-.337-1.461-.562.129.336 1.462.336 1.462.563-.13-.337-1.461Zm-.563.13-.336-1.462-.563.13.337 1.461.335 1.462.563-.13-.336-1.461Zm-.563.13-.335-1.463a1.608 1.608 0 0 1-.587.029l-.203 1.486-.202 1.486c.557.076 1.115.05 1.663-.077l-.336-1.462Zm-1.124.052.202-1.486-.562-.077-.203 1.486-.203 1.486.563.077.203-1.486Zm-.563-.077.203-1.486-.563-.077-.203 1.486-.202 1.486.562.077.203-1.486Zm-.563-.077.203-1.486a7.04 7.04 0 0 0-1.428-.05l.1 1.497.101 1.497c.273-.019.547-.01.822.028l.203-1.486Zm-1.124-.039-.101-1.496-.563.038.101 1.496.1 1.497.563-.038-.1-1.497Zm-.563.038-.1-1.496-.563.037.1 1.497.101 1.497.563-.038-.101-1.497Zm-.563.038-.1-1.497c-.33.023-.661.03-.992.023l-.032 1.5-.034 1.5c.42.008.84-.001 1.26-.03l-.102-1.496Zm-1.124.026.032-1.5-.562-.012-.033 1.5-.033 1.499.563.012.032-1.5Zm-.563-.013.033-1.5-.563-.012-.032 1.5-.034 1.5.563.012.033-1.5Zm-.563-.012.034-1.5a16.506 16.506 0 0 1-1.032-.055l-.127 1.495-.126 1.494c.406.035.812.056 1.218.065l.033-1.5Zm-1.124-.06.126-1.495-.563-.047-.126 1.494-.127 1.495.563.047.127-1.494Zm-.563-.048.127-1.494-.563-.048-.127 1.495-.126 1.494.563.048.126-1.495Zm-.563-.047.127-1.495a9.822 9.822 0 0 1-.976-.133l-.276 1.475-.275 1.474c.424.08.848.137 1.274.173l.127-1.494Zm-1.124-.153.275-1.475-.562-.105-.276 1.475-.276 1.474.563.105.276-1.474Zm-.563-.105.276-1.475-.563-.105-.276 1.475-.275 1.474.562.105.276-1.474Zm-.563-.105.276-1.475a5.251 5.251 0 0 0-1.572-.056l.172 1.49.171 1.49a2.25 2.25 0 0 1 .678.025l.276-1.474Zm-1.124-.04-.172-1.49-.563.064.172 1.49.172 1.49.563-.064-.172-1.49Zm-.563.064-.172-1.49-.563.065.172 1.49.172 1.49.563-.064-.172-1.49Zm-.563.065-.171-1.49c-.32.037-.64.056-.958.057l.005 1.5.004 1.5c.431-.001.862-.027 1.292-.077l-.172-1.49Zm-1.124.067-.005-1.5-.563.002.005 1.5.005 1.5.562-.002-.005-1.5Zm-.563.002-.005-1.5-.562.001.005 1.5.004 1.5.563-.001-.005-1.5Zm-.563.001-.004-1.5a9.824 9.824 0 0 0-1.328.095l.208 1.485.207 1.486c.308-.043.615-.065.922-.066l-.005-1.5Zm-1.124.08-.208-1.485-.562.078.207 1.486.207 1.486.563-.079-.208-1.486Zm-.563.079-.207-1.486-.563.079.208 1.485.207 1.486.562-.078-.207-1.486Zm-.563.078-.207-1.485a2.679 2.679 0 0 1-.723.003l-.194 1.488-.195 1.487a5.68 5.68 0 0 0 1.527-.007l-.208-1.486Zm-1.124.006.194-1.488-.563-.073-.194 1.487-.194 1.487.562.074.194-1.487Zm-.563-.074.194-1.487-.562-.074-.194 1.487-.195 1.488.563.073.194-1.487Zm-.563-.074.195-1.487a26.063 26.063 0 0 0-1.194-.128l-.126 1.495-.125 1.494c.352.03.704.068 1.056.114l.194-1.488Zm-1.124-.12.125-1.495-.562-.047-.126 1.494-.126 1.495.563.047.126-1.494Zm-.563-.048.126-1.494-.563-.048-.126 1.495-.125 1.495.562.047.126-1.495Zm-.563-.047.126-1.495a7.138 7.138 0 0 0-1.423.023l.172 1.49.173 1.49a4.16 4.16 0 0 1 .827-.013l.126-1.495Zm-1.124.018-.173-1.49-.563.065.173 1.49.173 1.49.562-.065-.172-1.49Zm-.563.065-.173-1.49-.562.066.172 1.49.173 1.49.563-.066-.173-1.49Zm-.563.066-.172-1.49a2.586 2.586 0 0 1-.715-.017l-.237 1.482-.238 1.48a5.6 5.6 0 0 0 1.535.035l-.172-1.49Zm-1.124-.025.237-1.482-.562-.09-.238 1.481-.238 1.481.563.09.237-1.48Zm-.563-.09.238-1.482-.563-.09-.237 1.481-.238 1.481.562.09.238-1.48Zm-.563-.091.238-1.481a8.09 8.09 0 0 0-1.38-.102l.017 1.5.019 1.5c.288-.004.577.017.869.064l.237-1.481Zm-1.124-.084-.019-1.5-.562.007.018 1.5.018 1.5.563-.007-.019-1.5Zm-.563.007-.018-1.5-.563.007.018 1.5.018 1.5.563-.007-.018-1.5Zm-.563.007-.018-1.5a19.84 19.84 0 0 0-1.218.052l.111 1.496.111 1.496c.345-.025.689-.04 1.033-.044l-.018-1.5Zm-1.125.048-.11-1.495-.563.041.111 1.496.111 1.496.563-.042-.111-1.496Zm-.562.042-.111-1.496-.563.042.111 1.496.111 1.496.563-.042-.111-1.496Zm-.563.042-.11-1.496a7.736 7.736 0 0 1-.943.012l-.072 1.499-.071 1.498c.436.02.872.015 1.308-.017l-.111-1.496Zm-1.125.015.072-1.499-.562-.027-.072 1.499-.072 1.498.563.027.072-1.498Zm-.562-.027.072-1.499-.563-.026-.072 1.498-.071 1.498.562.027.072-1.498Zm-.563-.027.072-1.498a12.67 12.67 0 0 0-1.278.003l.081 1.498.082 1.498a9.52 9.52 0 0 1 .972-.003l.072-1.498Zm-1.125.003-.08-1.498-.563.031.081 1.498.081 1.498.563-.03-.081-1.499Zm-.562.03-.081-1.497-.563.03.081 1.498.082 1.498.562-.03-.081-1.498Zm-.563.031-.08-1.498c-.397.022-.793.052-1.188.09l.143 1.493.144 1.493c.355-.034.709-.06 1.063-.08l-.081-1.498Zm-1.125.085-.143-1.493-.563.054.144 1.493.144 1.493.563-.054-.145-1.493Zm-.562.054-.144-1.493-.563.054.145 1.493.143 1.494.563-.055-.144-1.493Zm-.563.054-.143-1.493c-.43.042-.858.107-1.285.195l.303 1.469.303 1.469c.324-.067.646-.116.966-.146l-.143-1.494Zm-1.125.17-.303-1.468-.562.116.303 1.469.303 1.469.563-.116-.303-1.47Zm-.562.117-.303-1.47-.563.117.303 1.469.303 1.469.563-.116-.303-1.47Zm-.563.116-.303-1.47a3.072 3.072 0 0 1-.759.064l-.063 1.498-.062 1.499c.5.02.998-.02 1.49-.122l-.302-1.47Zm-1.125.092.063-1.498-.562-.024-.063 1.499-.063 1.498.563.024.063-1.499Zm-.562-.023.063-1.499-.563-.023-.063 1.498-.062 1.499.562.023.063-1.498Zm-.563-.024.063-1.498a45.13 45.13 0 0 1-1.089-.06l-.099 1.497-.098 1.497a45.3 45.3 0 0 0 1.16.063l.064-1.499Zm-1.125-.06.1-1.497-.563-.037-.099 1.496-.099 1.497.563.037.099-1.497Zm-.562-.038.099-1.496-.563-.038-.099 1.497-.098 1.497.562.037.099-1.497Zm-.563-.037.1-1.497-1.13-.072-.095 1.497-.094 1.497c.374.023.747.047 1.12.072l.1-1.497Zm-1.125-.072.095-1.497-.563-.036-.094 1.497-.094 1.497.562.036.095-1.497Zm-.562-.036.094-1.497-.562-.035-.095 1.497-.094 1.497.563.035.094-1.497Zm-.563-.035.095-1.497a13.305 13.305 0 0 1-1.011-.103l-.209 1.485-.208 1.486c.413.058.826.1 1.24.126l.094-1.497Zm-1.124-.115.208-1.485-.563-.079-.208 1.485-.208 1.486.562.079.209-1.486Zm-.563-.079.208-1.485-.562-.079-.209 1.486-.208 1.485.563.079.208-1.486Zm-.563-.078.209-1.486a6.948 6.948 0 0 0-1.434-.052l.1 1.496.1 1.497c.272-.018.544-.008.817.03l.209-1.485Zm-1.124-.042-.1-1.496-.563.038.1 1.496.1 1.497.563-.038-.1-1.497Zm-.563.038-.1-1.497-.563.038.1 1.497.1 1.496.563-.037-.1-1.497Zm-.563.038-.1-1.497c-.444.03-.887.09-1.328.182l.303 1.469.304 1.469a6.8 6.8 0 0 1 .922-.127l-.1-1.496Zm-1.124.154-.304-1.47-.563.117.304 1.47.304 1.468.562-.116-.303-1.47Zm-.563.116-.304-1.469-.562.116.303 1.47.304 1.468.563-.116-.304-1.469Zm-.563.116-.303-1.469a.672.672 0 0 1-.36-.024l-.462 1.428-.461 1.427a3.663 3.663 0 0 0 1.89.107l-.303-1.469Zm-1.125-.065.462-1.428-.562-.182-.462 1.428-.462 1.427.563.182.462-1.427Zm-.562-.182.462-1.428-.563-.182-.462 1.428-.461 1.427.562.182.462-1.427Zm-.563-.182.462-1.428a3.938 3.938 0 0 0-1.808-.154l.221 1.484.222 1.483a.94.94 0 0 1 .442.042l.462-1.427Zm-1.125-.098-.221-1.484-.563.084.222 1.484.222 1.483.562-.084-.221-1.483Zm-.562.084-.222-1.484-.562.085.221 1.483.222 1.483.563-.084-.222-1.483Zm-.563.084L2.341 25.4a.802.802 0 0 1 .26.011c.164.031.407.119.624.337.219.218.308.465.339.637.028.157.01.261.008.276l-1.479-.248-1.48-.248c-.055.334-.113 1.1.49 1.703.595.596 1.352.548 1.681.498l-.221-1.483Zm-.469-.47 1.48.248.092-.554-1.479-.248-1.48-.249-.092.555 1.479.248Zm.093-.554 1.48.248.092-.555-1.479-.248-1.48-.248-.092.554 1.479.249Zm.093-.555 1.48.248a4.508 4.508 0 0 0-.035-1.669l-1.468.305-1.47.304c.042.197.044.382.014.564l1.479.248Zm-.023-1.116 1.468-.305-.116-.562-1.469.304-1.469.304.117.563 1.469-.305Zm-.117-.563 1.469-.304-.117-.563-1.468.305-1.47.304.117.562 1.47-.304Zm-.116-.563 1.468-.304c-.07-.341-.129-.682-.175-1.023l-1.486.203-1.487.202c.056.41.126.818.21 1.227l1.47-.305Zm-.193-1.125 1.486-.202-.077-.562-1.486.202-1.486.202.076.563 1.487-.203Zm-.077-.562 1.486-.202-.076-.563-1.487.203-1.486.202.077.562 1.486-.202Zm-.077-.563 1.487-.202a1.533 1.533 0 0 1 .03-.573l-1.459-.35-1.458-.349a4.532 4.532 0 0 0-.086 1.677l1.486-.203Zm.058-1.125 1.46.35.134-.563-1.459-.349-1.459-.35-.134.563 1.458.35Zm.135-.562 1.459.35.135-.563-1.46-.35-1.458-.349-.135.563 1.46.349Zm.135-.563 1.459.35c.13-.54.165-1.09.103-1.642l-1.49.168-1.491.167c.022.198.01.398-.04.608l1.459.35Zm.071-1.125 1.491-.167-.063-.563-1.49.168-1.492.168.064.562 1.49-.168Zm-.063-.562 1.49-.168-.063-.562-1.49.168-1.49.167.062.563 1.491-.168Zm-.063-.563 1.49-.167a2.17 2.17 0 0 1 .03-.666l-1.472-.291-1.472-.292a5.155 5.155 0 0 0-.067 1.584l1.49-.168Zm.048-1.125 1.471.292.112-.563-1.472-.291-1.471-.291-.112.562 1.472.291Zm.111-.562 1.472.291.11-.562-1.47-.291-1.472-.292-.111.563 1.471.291Zm.111-.563 1.472.292a4.198 4.198 0 0 0-.022-1.744l-1.464.328-1.464.327a1.2 1.2 0 0 1 .007.506l1.471.291Zm-.014-1.124 1.464-.328-.126-.563-1.464.328-1.464.328.126.562 1.464-.328Zm-.126-.563 1.464-.328-.126-.562-1.464.328-1.464.327.126.563 1.464-.328Zm-.126-.563 1.464-.327a1.698 1.698 0 0 1-.028-.601l-1.487-.197-1.488-.196A4.698 4.698 0 0 0 .49 12.14l1.464-.328Zm-.051-1.124 1.487.196.074-.563-1.487-.196-1.487-.196-.075.562 1.488.197Zm.074-.563 1.487.196.074-.562-1.487-.197-1.487-.196-.074.563 1.487.196Zm.074-.563 1.487.197.15-1.118-1.486-.204-1.486-.203c-.052.378-.102.755-.152 1.132l1.487.197Zm.151-1.124 1.486.203.077-.563-1.486-.203-1.486-.203-.077.562 1.486.204Zm.077-.563 1.486.203.077-.562-1.486-.204L.869 7.11l-.077.563 1.486.203Zm.077-.563 1.486.204c.068-.499.074-1 .017-1.5l-1.49.171-1.49.171c.028.25.025.5-.01.751l1.487.204Zm.012-1.125 1.49-.17-.064-.563-1.49.171-1.49.17.064.563 1.49-.17Zm-.064-.562 1.49-.17-.064-.563-1.49.17-1.49.171.064.563 1.49-.171Zm-.064-.563 1.49-.17a8.842 8.842 0 0 0-.265-1.355l-1.446.4-1.445.4c.083.303.141.601.175.896l1.49-.17Zm-.22-1.125 1.445-.4-.156-.562-1.445.4-1.446.4.156.563 1.445-.4Zm-.156-.562 1.445-.4-.156-.563-1.445.4-1.446.4.156.563 1.446-.4Zm-.156-.563 1.445-.4c-.043-.158-.04-.189-.038-.141.002.018.012.15-.032.33a1.41 1.41 0 0 1-.689.897l-.73-1.31L.933.877a1.588 1.588 0 0 0-.767 1.021 1.912 1.912 0 0 0-.044.581c.018.256.08.517.14.734l1.445-.4Zm-.044-.624.73 1.31.112-.062-.73-1.311-.73-1.31-.111.062.73 1.31Zm.113-.063.73 1.31.112-.062-.73-1.31-.73-1.311-.112.062.73 1.311Zm.112-.063.73 1.311a1.343 1.343 0 0 1-.333.129.554.554 0 0 1-.034.006h.01a5.974 5.974 0 0 1 .314-.012l-.013-1.5-.012-1.5a6.632 6.632 0 0 0-.586.026 2.791 2.791 0 0 0-.305.046 1.8 1.8 0 0 0-.501.184l.73 1.31Zm.675-.067.012 1.5.562-.004-.012-1.5-.012-1.5-.563.004.013 1.5Z"/></svg>