<svg xmlns="http://www.w3.org/2000/svg" width="32" height="33" fill="none"><path fill="#191919" d="M30.977 32.03c-1.859 0-2.807-.074-3.721-.148-.901-.07-1.835-.144-3.668-.144-.783 0-1.199-.502-1.523-.975-.627-.907-1.377-1.768-2.107-2.602-.744-.85-1.517-1.732-2.17-2.686-.643-.934-1.236-1.926-1.809-2.884-.502-.837-1.018-1.701-1.567-2.528-.496.542-1.678 1.889-3.226 3.68a73.287 73.287 0 0 1-1.792 1.973c-.6.643-1.219 1.31-1.771 1.95-3.4 3.938-3.423 3.938-3.63 3.938-.366 0-.754.047-1.166.097-.45.054-.911.11-1.367.11H.73l.476-.552a126.53 126.53 0 0 1 2.02-2.277c.662-.737 1.349-1.498 1.992-2.248.646-.75 1.256-1.557 1.845-2.338a48.817 48.817 0 0 1 1.863-2.36 249.4 249.4 0 0 1 1.895-2.178c.566-.646 1.132-1.293 1.722-1.976-.593-.887-1.095-1.795-1.584-2.673-.52-.937-1.059-1.905-1.695-2.83-.64-.927-1.367-1.825-2.073-2.689-.714-.877-1.454-1.785-2.107-2.736-.653-.948-1.246-1.95-1.822-2.92-.57-.962-1.159-1.953-1.798-2.884L1.252.84l.329-.177c.164-.09.268-.14.465-.14C3.41.523 4.796.472 6.14.425 7.412.383 8.725.336 10.021.332c.412 0 .576.379.676.603.03.074.064.148.094.191.449.657.981 1.46 1.54 2.308.67 1.011 1.428 2.16 2.164 3.232a120.747 120.747 0 0 0 3.802 5.224 187.564 187.564 0 0 1 3.034-3.637c.673-.784 1.413-1.557 2.063-2.237a42.676 42.676 0 0 0 1.367-1.47l.402-.47C27.203 1.703 27.829.99 27.959.893c.228-.168 2.093-.309 2.298-.309.127 0 .388 0 .475.245.084.234.1.281-3.717 4.665-.58.667-1.23 1.307-1.92 1.99-.69.68-1.403 1.383-2.04 2.113-.74.85-1.325 1.715-1.888 2.549-.412.61-.804 1.192-1.216 1.698.613.894 1.203 1.782 1.775 2.646.617.928 1.253 1.886 1.913 2.843.66.958 1.313 1.946 1.946 2.898.633.954 1.289 1.945 1.949 2.903.656.955 1.353 1.913 2.023 2.837.673.928 1.373 1.889 2.036 2.854.178.257.027.61-.047.75-.087.167-.278.445-.57.445v.01ZM6.032 3.232c.583.83 1.212 1.648 1.829 2.438.66.85 1.343 1.735 1.969 2.64.616.897 1.242 1.788 1.869 2.678.63.895 1.256 1.789 1.875 2.69.63.914 1.162 1.906 1.678 2.864.506.94 1.032 1.915 1.638 2.8.556.807 1.199 1.58 1.822 2.327.633.76 1.29 1.544 1.862 2.378.573.834 1.089 1.722 1.584 2.579.486.837.988 1.705 1.541 2.512.013.023.027.037.157.037.037 0 .218-.007.218-.007.496-.007 1.005-.053 1.497-.094.51-.043 1.035-.09 1.56-.097a223.91 223.91 0 0 1-1.426-2.117c-.54-.803-1.078-1.61-1.628-2.408-.546-.79-1.118-1.584-1.674-2.347-.556-.767-1.132-1.561-1.681-2.355a59.293 59.293 0 0 1-1.575-2.448 62.624 62.624 0 0 0-1.55-2.415 346.187 346.187 0 0 0-1.99-2.85c-.693-.988-1.39-1.976-2.073-2.97-.66-.962-1.386-1.903-2.09-2.814-.72-.935-1.463-1.9-2.143-2.89-.064-.094-.104-.118-.262-.118h-.083c-.402 0-.794-.074-1.173-.147-.365-.07-.71-.138-1.048-.138-.127 0-.278.07-.449.155-.08.036-.16.077-.247.113l-.007.004Z"/><path fill="#191919" d="M10.024.67c.275 0 .339.425.493.646.99 1.447 2.354 3.577 3.707 5.543 1.936 2.817 3.976 5.49 4.076 5.56.194-.221 1.691-2.083 3.29-3.942 1.215-1.413 2.625-2.773 3.429-3.708.978-1.138 2.984-3.486 3.141-3.6.077-.057 1.595-.245 2.1-.245.097 0 .154.007.161.024.02.057-1.56 1.929-3.654 4.334-1.162 1.336-2.693 2.649-3.959 4.103-1.383 1.587-2.257 3.265-3.272 4.447 1.323 1.923 2.509 3.781 3.831 5.7 1.32 1.92 2.573 3.882 3.896 5.805 1.32 1.916 2.736 3.768 4.059 5.69.104.154-.157.67-.342.67-3.694 0-3.694-.291-7.388-.291-.586 0-.914-.349-1.246-.831-1.276-1.852-2.99-3.416-4.277-5.285-1.276-1.855-2.318-3.885-3.604-5.75-.117.083-1.678 1.848-3.526 3.992-1.116 1.29-2.449 2.632-3.564 3.921-1.892 2.19-3.326 3.822-3.376 3.822h-.013c-.764 0-1.668.208-2.519.208 1.306-1.52 2.716-3.018 4.012-4.522 1.303-1.517 2.412-3.188 3.708-4.699 1.3-1.51 2.482-2.833 3.785-4.347-1.293-1.879-2.13-3.842-3.423-5.717-1.293-1.88-2.887-3.547-4.18-5.426C4.076 4.897 3.04 2.847 1.749.968c.147-.08.194-.1.307-.1 2.66 0 5.319-.181 7.978-.191m13.83 28.84c.07 0 .143-.004.22-.007 1.059-.017 2.117-.188 3.175-.19.11 0 .308.27.436.27a.1.1 0 0 0 .05-.016c-.014-.158-.077-.402-.154-.516-1.092-1.588-2.144-3.202-3.236-4.786-1.091-1.584-2.264-3.118-3.355-4.702-1.092-1.585-2.033-3.276-3.125-4.864-1.343-1.949-2.72-3.871-4.063-5.82-1.34-1.95-2.897-3.752-4.233-5.704-.144-.208-.302-.265-.54-.265h-.082c-.74 0-1.48-.285-2.22-.285-.43 0-.798.406-1.317.406.117.18.154.12.221.217 1.236 1.799 2.68 3.453 3.915 5.252 1.236 1.799 2.509 3.57 3.748 5.369 1.236 1.798 2.08 3.868 3.316 5.663 1.128 1.638 2.559 3.068 3.684 4.706 1.125 1.638 2 3.45 3.125 5.09.107.158.254.185.432.185M10.024 0C8.721.007 7.405.05 6.13.097 4.79.144 3.403.191 2.046.191c-.27 0-.428.074-.626.18L.764.728l.422.616c.633.921 1.219 1.91 1.788 2.867.58.975 1.176 1.983 1.832 2.937.663.961 1.403 1.876 2.124 2.757.7.86 1.426 1.751 2.056 2.669.626.911 1.162 1.872 1.678 2.803.452.818.918 1.655 1.457 2.485-.533.617-1.052 1.21-1.554 1.785-.613.697-1.243 1.42-1.896 2.18-.663.771-1.28 1.588-1.875 2.379-.587.777-1.193 1.577-1.832 2.32-.64.748-1.327 1.505-1.987 2.241a133.04 133.04 0 0 0-2.026 2.285L0 32.156h1.46c.476 0 .948-.057 1.407-.11.402-.048.78-.094 1.112-.094h.03c.325 0 .355-.037 1.487-1.317a310.74 310.74 0 0 0 2.385-2.74c.549-.636 1.165-1.299 1.761-1.942.607-.653 1.236-1.326 1.799-1.983a284.23 284.23 0 0 1 2.93-3.352c.46.71.895 1.44 1.32 2.153.576.965 1.169 1.96 1.819 2.9.666.969 1.443 1.86 2.197 2.717.753.864 1.467 1.678 2.08 2.569.25.365.77 1.118 1.798 1.118 1.822 0 2.706.07 3.64.144a40.56 40.56 0 0 0 3.749.148c.348 0 .653-.221.864-.623.214-.409.224-.807.026-1.095a139.376 139.376 0 0 0-2.043-2.864 123.96 123.96 0 0 1-2.016-2.827c-.656-.954-1.31-1.939-1.942-2.893-.633-.958-1.29-1.946-1.953-2.91a211.358 211.358 0 0 1-1.909-2.841c-.53-.797-1.075-1.618-1.638-2.445.365-.469.714-.985 1.079-1.527.559-.827 1.135-1.681 1.862-2.515.63-.72 1.336-1.42 2.023-2.097.693-.687 1.35-1.333 1.939-2.006 2.63-3.021 3.89-4.687 3.781-4.997-.11-.312-.375-.47-.794-.47-.02 0-2.12.098-2.495.373-.14.103-.438.425-2.853 3.238l-.399.466c-.348.405-.837.914-1.353 1.457a61.892 61.892 0 0 0-2.076 2.25 190.649 190.649 0 0 0-2.774 3.316 125.25 125.25 0 0 1-3.53-4.876c-.736-1.072-1.493-2.22-2.163-3.232-.563-.851-1.092-1.651-1.54-2.311-.014-.02-.044-.09-.065-.134-.103-.241-.351-.804-.98-.804Zm-3.49 3.366a.695.695 0 0 1 .195-.07c.308 0 .636.063.984.13.395.077.804.154 1.236.154h.087c.687.998 1.424 1.953 2.137 2.877.7.908 1.423 1.85 2.08 2.8.683.995 1.386 1.996 2.066 2.964.657.935 1.337 1.903 1.993 2.857.536.78 1.048 1.605 1.544 2.402.506.813 1.025 1.654 1.58 2.461.55.8 1.13 1.595 1.689 2.365.553.763 1.129 1.55 1.668 2.338.55.797 1.095 1.614 1.624 2.404.355.533.72 1.079 1.089 1.621-.329.02-.653.047-.972.074-.509.044-.99.084-1.473.094h-.107c-.02.003-.04.003-.057.003-.516-.764-.992-1.584-1.454-2.381-.499-.864-1.018-1.758-1.598-2.602-.582-.845-1.242-1.638-1.878-2.402-.62-.743-1.26-1.51-1.806-2.3-.596-.868-1.118-1.836-1.62-2.77-.52-.969-1.056-1.967-1.695-2.894-.62-.901-1.26-1.809-1.876-2.69-.616-.877-1.253-1.782-1.869-2.68-.63-.913-1.316-1.798-1.98-2.655-.528-.683-1.074-1.383-1.583-2.097l-.004-.003Z"/></svg>