<svg width="970" height="652" viewBox="0 0 970 652" fill="none" xmlns="http://www.w3.org/2000/svg">
<path d="M898.021 65.3203L969.298 146.543L904.32 110.407L872.825 193.619L947.086 184.336L833.375 332.857L886.086 461.155L937.14 302.357L894.706 531.437L806.521 327.884L898.021 216.825L842.326 220.472L898.021 65.3203Z" fill="#00E800"/>
<path d="M619.69 43.0938L695.939 291.071L813.297 49.7242L794.069 611.651L773.846 188.631L686.325 361.021L644.222 204.544L613.391 488.325L619.69 43.0938Z" fill="#00E800"/>
<path d="M548.89 65.3203L620.167 146.543L555.189 110.407L523.695 193.619L597.955 184.336L484.244 332.857L536.955 461.155L588.01 302.357L545.575 531.437L457.391 327.884L548.89 216.825L493.195 220.472L548.89 65.3203Z" fill="#00E800"/>
<path d="M376.313 290.409L541.41 503.245L358.08 315.605L358.743 503.245L303.379 102.438L441.291 158.133L376.313 290.409ZM334.542 139.236L356.422 290.409L402.835 172.72L334.542 139.236Z" fill="#00E800"/>
<path d="M353.917 14.9141L272.695 162.44L297.89 532.748L240.537 196.919L150.695 272.505L353.917 14.9141Z" fill="#00E800"/>
<path d="M38.7878 41.44L128.298 238.363L235.711 0L148.189 277.814L232.396 554.633L130.619 311.629L0 515.514L112.717 277.814L38.7878 41.44Z" fill="#00E800"/>
<path d="M827.512 533.845C828.459 527.214 829.596 520.961 830.354 514.519C831.301 505.424 843.238 505.424 850.438 509.971C851.386 510.919 852.333 513.761 851.386 516.414C845.891 528.35 843.996 542.182 843.996 555.066C854.228 554.119 874.312 549.382 870.712 561.319C867.87 570.603 850.817 569.277 840.775 569.277C839.07 581.214 845.322 633.32 844.564 645.257C844.375 648.857 841.722 651.699 837.933 651.699C833.385 651.699 831.491 650.373 829.975 645.636C825.996 634.836 827.133 579.888 821.638 569.846C814.438 575.34 800.796 579.888 797.196 569.656C796.248 567.003 799.09 563.214 801.932 561.319C809.133 557.719 819.364 558.667 823.912 553.172C827.512 548.624 826.564 540.287 827.512 533.845Z" fill="#ECC200"/>
<path d="M776.026 533.862C785.311 537.841 796.49 540.115 801.037 549.209C802.553 552.052 800.09 557.546 798.006 558.873C788.342 564.936 775.079 542.199 760.679 551.294C755.184 554.894 763.9 563.61 767.689 564.936C779.247 569.104 788.721 573.273 797.627 581.42C803.121 586.725 801.037 596.957 797.058 603.589C787.205 620.073 752.342 629.168 740.973 605.673C738.321 600.368 744.574 594.494 749.879 594.115C754.426 593.736 754.995 600.936 758.595 602.641C767.5 607.189 783.037 602.452 783.037 591.652C783.037 588.999 777.921 584.831 774.321 583.315C761.626 577.631 747.037 574.41 740.973 561.715C733.584 546.557 763.521 528.367 776.026 533.862Z" fill="#ECC200"/>
<path d="M714.91 570.624C714.91 563.045 714.91 555.655 718.321 549.023C720.784 544.097 727.416 542.392 733.1 544.855C736.511 546.371 740.489 550.729 737.268 553.95C731.395 562.287 734.805 570.624 732.342 578.013C729.121 587.108 734.805 595.445 732.342 604.54C732.342 605.298 731.395 607.003 730.637 607.003C724.763 608.708 717.563 609.466 715.668 603.592C712.447 592.792 714.91 581.234 714.91 570.624ZM719.647 527.802C716.616 524.013 719.647 515.676 722.3 513.971C728.174 510.56 735.942 510.749 739.353 515.676C742.763 520.792 737.647 529.318 734.237 531.213C729.879 533.486 724.005 532.729 719.647 527.802Z" fill="#ECC200"/>
<path d="M655.27 553.377C655.649 550.724 651.86 548.261 653.565 545.608C658.87 541.25 653.565 533.292 659.628 529.124C664.744 525.524 670.997 524.766 674.407 529.124C677.06 531.776 675.355 537.84 677.06 538.598C692.597 540.303 714.576 545.419 712.681 563.798C710.029 588.808 683.313 586.914 666.828 592.977C663.418 610.409 664.555 617.419 669.481 634.662C669.67 635.798 672.323 638.641 673.649 641.104C677.06 648.114 664.934 648.114 659.628 646.22C652.618 643.756 652.049 634.093 651.102 626.325C647.691 601.124 652.807 577.629 655.27 553.377ZM675.355 554.324C670.428 559.25 667.018 575.356 671.186 577.44C678.197 580.661 692.976 575.166 694.681 562.471C695.628 556.977 691.839 555.082 688.239 554.324C684.071 552.429 677.818 551.671 675.355 554.324Z" fill="#ECC200"/>
<path d="M635.089 622.53C631.868 620.445 631.679 615.709 629.026 615.709C615.573 613.245 600.415 614.003 592.836 601.308C587.72 594.487 589.805 581.035 594.542 574.782C609.889 554.129 636.605 560.571 636.984 560.003C638.689 557.35 639.826 548.824 635.658 548.066C624.479 545.603 617.468 550.719 607.426 554.129C599.847 556.782 598.142 541.434 599.847 539.729C613.489 530.445 641.721 525.139 650.247 542.95C657.826 559.056 648.731 575.161 647.405 592.782C646.647 604.34 645.51 629.54 635.089 622.53ZM631.679 599.603C633.384 589.94 638.31 583.498 634.142 573.456C623.152 577.624 604.015 574.403 603.636 590.698C603.447 599.035 630.163 603.203 631.679 599.603Z" fill="#ECC200"/>
<path d="M539.168 559.83C538.031 550.356 528.747 539.745 537.273 532.166C546.747 523.64 558.115 535.009 556.221 547.324C567.589 545.43 570.431 529.324 583.884 533.114C588.621 535.009 594.495 537.093 590.516 542.588C582.937 553.198 571.568 557.935 563.8 569.304C561.147 573.093 562.852 578.777 560.958 582.567C559.063 585.409 559.063 590.146 562.852 594.883C566.642 599.62 565.694 609.093 560.958 613.83C557.168 619.515 548.642 619.515 544.852 614.778C542.01 612.883 541.821 610.041 542.01 606.251C542.768 591.093 541.063 574.988 539.168 559.83Z" fill="#ECC200"/>
<path d="M476.289 565.132C475.91 546.374 489.742 532.732 508.31 535.385C523.089 537.469 536.542 551.68 536.353 567.596C533.321 576.69 512.1 584.459 504.9 591.28C504.142 591.47 500.731 593.364 501.868 595.259C508.5 606.817 520.626 601.701 531.237 596.206C538.058 601.133 534.458 612.501 526.689 613.638C518.163 614.964 508.879 617.238 499.784 613.259C480.836 604.733 476.668 583.322 476.289 565.132ZM496.942 574.796C505.847 574.417 514.563 571.954 517.405 562.859C521.573 553.385 505.847 548.459 498.268 552.438C489.931 556.796 492.394 574.417 496.942 574.796Z" fill="#ECC200"/>
<path d="M420.602 562.494C421.928 550.747 416.623 537.294 422.307 526.873C423.823 523.083 430.076 520.62 435.57 523.083C438.034 524.599 438.034 527.82 438.034 530.852C436.518 545.062 434.055 559.273 438.034 573.484C444.286 562.494 455.465 549.041 469.486 555.294C474.223 574.999 479.339 594.894 477.444 614.6C477.065 619.337 467.213 621.61 463.992 618.389C453.76 605.884 463.234 587.694 455.465 572.726C446.749 581.442 440.307 591.673 434.812 603.421C433.297 605.884 427.802 608.158 424.581 607.4C423.065 606.642 418.328 606.642 418.328 604.368C418.328 590.157 419.086 576.705 420.602 562.494Z" fill="#ECC200"/>
<path d="M371.217 618.18C366.859 619.885 364.017 615.338 363.828 612.685C362.123 581.232 369.323 549.969 369.323 518.516C369.323 513.969 362.88 517.569 360.038 518.516C354.544 519.464 348.101 525.716 342.607 523.064C336.164 520.221 337.112 511.506 343.554 508.284C372.354 493.884 385.807 499.19 416.313 497.484C417.26 497.484 418.207 500.137 418.965 501.084C420.86 506.769 416.312 511.316 410.818 513.211C397.744 515.863 402.481 513.969 390.544 514.916C384.102 546.18 382.965 577.632 382.207 608.896C382.207 613.633 375.765 616.285 371.217 618.18Z" fill="#ECC200"/>
<path d="M270.41 533.845C271.357 527.214 272.494 520.961 273.252 514.519C274.2 505.424 286.137 505.424 293.337 509.971C294.284 510.919 295.231 513.761 294.284 516.414C288.789 528.35 286.894 542.182 286.894 555.066C297.126 554.119 317.21 549.382 313.61 561.319C310.768 570.603 293.716 569.277 283.673 569.277C281.968 581.214 288.221 633.32 287.463 645.257C287.273 648.857 284.621 651.699 280.831 651.699C276.284 651.699 274.389 650.373 272.873 645.636C268.894 634.836 270.031 579.888 264.536 569.846C257.336 575.34 243.694 579.888 240.094 569.656C239.147 567.003 241.989 563.214 244.831 561.319C252.031 557.719 262.263 558.667 266.81 553.172C270.41 548.624 269.463 540.287 270.41 533.845Z" fill="#ECC200"/>
<path d="M184.414 565.132C184.035 546.374 197.867 532.732 216.435 535.385C231.214 537.469 244.667 551.68 244.478 567.596C241.446 576.69 220.225 584.459 213.025 591.28C212.267 591.47 208.856 593.364 209.993 595.259C216.625 606.817 228.751 601.701 239.362 596.206C246.183 601.133 242.583 612.501 234.814 613.638C226.288 614.964 217.004 617.238 207.909 613.259C188.961 604.733 184.793 583.322 184.414 565.132ZM205.067 574.796C213.972 574.417 222.688 571.954 225.53 562.859C229.698 553.385 213.972 548.459 206.393 552.438C198.056 556.796 200.519 574.417 205.067 574.796Z" fill="#ECC200"/>
<path d="M101.878 540.493C102.446 533.104 102.825 524.767 106.993 518.325C104.909 517.377 101.878 517.377 99.7933 516.241C95.4353 512.072 98.6564 503.925 101.878 502.598C131.246 491.23 164.783 498.43 185.815 522.493C189.984 558.304 147.92 569.862 121.772 579.336C120.636 589.757 125.941 599.231 123.857 608.705C121.772 614.957 114.383 620.262 106.046 618.178C103.962 617.041 102.825 614.957 101.878 613.82C98.6564 588.62 99.7933 564.557 101.878 540.493ZM122.72 536.135C122.72 543.714 117.604 555.083 123.857 557.167C138.636 562.283 160.615 547.693 164.783 531.02C152.278 521.546 137.499 511.125 121.772 515.293C120.636 515.293 125.941 518.325 125.941 521.546C125.941 526.851 122.72 531.02 122.72 536.135Z" fill="#ECC200"/>
</svg>
