<svg xmlns="http://www.w3.org/2000/svg" width="32" height="32" fill="none"><path fill="#191919" d="M16 2.882c4.27 0 4.775.016 6.462.093 1.56.071 2.408.332 2.971.551.747.29 1.28.637 1.84 1.197.56.56.907 1.093 1.197 1.84.219.563.48 1.411.55 2.971.078 1.687.094 2.193.094 6.462s-.016 4.775-.093 6.462c-.071 1.56-.332 2.408-.551 2.971-.29.747-.637 1.28-1.197 1.84-.56.56-1.093.907-1.84 1.197-.563.219-1.411.48-2.971.55-1.687.078-2.193.094-6.462.094s-4.775-.016-6.462-.093c-1.56-.071-2.408-.332-2.971-.551-.747-.29-1.28-.637-1.84-1.197-.56-.56-.907-1.093-1.197-1.84-.219-.563-.48-1.411-.55-2.971-.078-1.687-.094-2.193-.094-6.462s.016-4.775.093-6.462c.071-1.56.332-2.408.551-2.971.29-.747.637-1.28 1.197-1.84.56-.56 1.093-.907 1.84-1.197.563-.219 1.411-.48 2.971-.55 1.687-.078 2.193-.094 6.462-.094ZM16 0c-4.344 0-4.889.018-6.595.096C7.7.175 6.362.444 5.176.94a7.395 7.395 0 0 0-2.672 1.74 7.395 7.395 0 0 0-1.74 2.672C.268 6.538 0 7.876.096 9.58.018 11.111 0 11.656 0 16s.018 4.889.096 6.595c.079 1.704.348 3.042.844 4.228a7.395 7.395 0 0 0 1.74 2.672 7.395 7.395 0 0 0 2.672 1.74c1.186.496 2.524.765 4.228.844C11.111 31.982 11.656 32 16 32s4.889-.018 6.595-.096c1.704-.079 3.042-.348 4.228-.844a7.395 7.395 0 0 0 2.672-1.74 7.395 7.395 0 0 0 1.74-2.672c.496-1.186.765-2.524.844-4.228C31.982 20.889 32 20.344 32 16s-.018-4.889-.096-6.595c-.079-1.704-.348-3.042-.844-4.228a7.395 7.395 0 0 0-1.74-2.672A7.395 7.395 0 0 0 26.648.765C25.462.268 24.124 0 22.42.096 20.889.018 20.344 0 16 0Z"/><path fill="#191919" d="M16 7.784a8.216 8.216 0 1 0 0 16.432 8.216 8.216 0 0 0 0-16.432Zm0 13.55a5.333 5.333 0 1 1 0-10.668 5.333 5.333 0 0 1 0 10.668ZM26.46 7.46a1.92 1.92 0 1 1-3.84 0 1.92 1.92 0 0 1 3.84 0Z"/></svg>