<svg xmlns="http://www.w3.org/2000/svg" width="36" height="37" fill="none"><path fill="#191919" d="M19.725 35.01c-2.552 1.021-4.891.895-7.206.38-1.287-3.688-1.2-16.688.099-22.917.4-.317.526-.36 1.056-.384a41.786 41.786 0 0 1 4.35.028c.095.296.21.597.292.898.056.206.04.55.159.72.134.19.431.194.629.071.198-.122.324-.328.451-.522.317-.483.712-.934 1.23-1.191.84-.42 1.833-.261 2.767-.254.93.008 1.856-.142 2.786-.19.93-.047 1.892.016 2.73.42.5.241.935.598 1.366.95.811.66 1.607 1.219 2.165 2.11.558.89.985 1.804 1.357 2.761 1.516 3.883 1.785 12.546.515 16.879-2.327.728-4.654.522-7.017-.277-.772-2.3-.012-4.508-.067-6.692-.048-2.026.031-4.072-.637-6-.475-1.365-1.39-2.529-2.98-2.707-1.654-.186-2.604.907-3.352 2.173-1.25 2.117-1.112 4.472-1.057 6.791.055 2.204.226 4.409.364 6.961v-.008ZM1.6 11.705c2.398-.356 4.393-.21 6.965-.008-.087 7.935-1.068 15.818-.158 23.642-2.608 1.373-5.03.542-7.788.95-.732-8.458-1.223-16.578.977-24.584H1.6ZM9.483 4.72C9.436 7.237 7.35 9.18 4.7 9.18 2.423 9.18.947 7.526.967 4.997.99 2.24 3.163-.093 5.62.003 7.59.082 9.527 2.445 9.483 4.72Z"/></svg>